{
  "source": "C:\\Users\\Peter\\Desktop\\stuff\\MIUN\\quantitative_research\\video_compression\\videos\\BVI-HD\\BVI-HD_CDVL_videos\\ORIG\\RockWave_1920x1080_30fps.mp4",
  "output": "C:\\Users\\Peter\\Desktop\\stuff\\MIUN\\quantitative_research\\video_compression\\compressed_videos\\BVI-HD\\vp9\\8\\RockWave_1920x1080_30fps_vp9.webm",
  "codec": "vp9",
  "ok": "Input #0, mov,mp4,m4a,3gp,3g2,mj2, from 'C:\\Users\\Peter\\Desktop\\stuff\\MIUN\\quantitative_research\\video_compression\\videos\\BVI-HD\\BVI-HD_CDVL_videos\\ORIG\\RockWave_1920x1080_30fps.mp4':\n  Metadata:\n    major_brand     : isom\n    minor_version   : 512\n    compatible_brands: isomiso2avc1mp41\n    encoder         : Lavf54.28.101\n  Duration: 00:00:05.00, start: 0.000000, bitrate: 303557 kb/s\n  Stream #0:0[0x1](und): Video: h264 (High 4:4:4 Predictive) (avc1 / 0x31637661), yuv420p(progressive), 1920x1080, 303553 kb/s, 30 fps, 30 tbr, 30 tbn (default)\n    Metadata:\n      handler_name    : VideoHandler\n      vendor_id       : [0][0][0][0]\n[out#0/webm @ 00000175a8479700] Codec AVOption b:a (set bitrate (in bits/s)) has not been used for any stream. The most likely reason is either wrong type (e.g. a video option with no video streams) or that it is a private option of some decoder which was not actually used for any stream.\nStream mapping:\n  Stream #0:0 -> #0:0 (h264 (native) -> vp9 (libvpx-vp9))\nPress [q] to stop, [?] for help\n[libvpx-vp9 @ 00000175a8f80440] v1.15.2-100-g40561f514\nOutput #0, webm, to 'C:\\Users\\Peter\\Desktop\\stuff\\MIUN\\quantitative_research\\video_compression\\compressed_videos\\BVI-HD\\vp9\\8\\RockWave_1920x1080_30fps_vp9.webm':\n  Metadata:\n    major_brand     : isom\n    minor_version   : 512\n    compatible_brands: isomiso2avc1mp41\n    encoder         : Lavf62.3.100\n  Stream #0:0(und): Video: vp9, yuv420p(tv, progressive), 1920x1080, q=2-31, 8000 kb/s, 30 fps, 1k tbn (default)\n    Metadata:\n      encoder         : Lavc62.11.100 libvpx-vp9\n      handler_name    : VideoHandler\n      vendor_id       : [0][0][0][0]\n    Side data:\n      cpb: bitrate max/min/avg: 0/0/0 buffer size: 8000000 vbv_delay: N/A\nframe=    0 fps=0.0 q=0.0 size=       0KiB time=N/A bitrate=N/A speed=N/A elapsed=0:00:00.51    \nframe=    2 fps=1.4 q=23.0 size=       1KiB time=00:00:00.06 bitrate=  76.1kbits/s speed=0.0472x elapsed=0:00:01.41    \nframe=    5 fps=2.6 q=57.0 size=       1KiB time=00:00:00.16 bitrate=  30.4kbits/s speed=0.0855x elapsed=0:00:01.94    \nframe=    8 fps=3.2 q=60.0 size=       1KiB time=00:00:00.23 bitrate=  21.7kbits/s speed=0.094x elapsed=0:00:02.48    \nframe=   10 fps=3.3 q=60.0 size=       1KiB time=00:00:00.33 bitrate=  15.2kbits/s speed=0.109x elapsed=0:00:03.07    \nframe=   13 fps=3.6 q=60.0 size=       1KiB time=00:00:00.43 bitrate=  11.7kbits/s speed=0.12x elapsed=0:00:03.61    \nframe=   15 fps=3.6 q=60.0 size=       1KiB time=00:00:00.50 bitrate=  10.1kbits/s speed=0.12x elapsed=0:00:04.16    \nframe=   18 fps=3.8 q=60.0 size=       1KiB time=00:00:00.60 bitrate=   8.5kbits/s speed=0.127x elapsed=0:00:04.71    \nframe=   20 fps=3.8 q=60.0 size=       1KiB time=00:00:00.66 bitrate=   7.6kbits/s speed=0.125x elapsed=0:00:05.31    \nframe=   23 fps=3.9 q=59.0 size=       1KiB time=00:00:00.76 bitrate=   6.6kbits/s speed=0.131x elapsed=0:00:05.86    \nframe=   25 fps=3.9 q=60.0 size=       1KiB time=00:00:00.83 bitrate=   6.1kbits/s speed=0.129x elapsed=0:00:06.44    \nframe=   27 fps=3.9 q=60.0 size=       1KiB time=00:00:00.90 bitrate=   5.6kbits/s speed=0.129x elapsed=0:00:06.96    \nframe=   30 fps=4.0 q=60.0 size=       1KiB time=00:00:00.96 bitrate=   5.2kbits/s speed=0.129x elapsed=0:00:07.49    \nframe=   31 fps=3.8 q=35.0 size=       1KiB time=00:00:01.03 bitrate=   4.9kbits/s speed=0.128x elapsed=0:00:08.06    \nframe=   33 fps=3.8 q=59.0 size=       1KiB time=00:00:01.10 bitrate=   4.6kbits/s speed=0.128x elapsed=0:00:08.61    \nframe=   35 fps=3.8 q=60.0 size=       1KiB time=00:00:01.13 bitrate=   4.5kbits/s speed=0.124x elapsed=0:00:09.13    \nframe=   36 fps=3.6 q=60.0 size=       1KiB time=00:00:01.20 bitrate=   4.2kbits/s speed=0.121x elapsed=0:00:09.88    \nframe=   37 fps=3.5 q=60.0 size=       1KiB time=00:00:01.23 bitrate=   4.1kbits/s speed=0.118x elapsed=0:00:10.48    \nframe=   38 fps=3.4 q=60.0 size=       1KiB time=00:00:01.26 bitrate=   4.0kbits/s speed=0.115x elapsed=0:00:11.05    \nframe=   39 fps=3.4 q=60.0 size=       1KiB time=00:00:01.30 bitrate=   3.9kbits/s speed=0.112x elapsed=0:00:11.57    \nframe=   41 fps=3.4 q=40.0 size=       1KiB time=00:00:01.36 bitrate=   3.7kbits/s speed=0.113x elapsed=0:00:12.13    \nframe=   43 fps=3.4 q=59.0 size=       1KiB time=00:00:01.43 bitrate=   3.5kbits/s speed=0.113x elapsed=0:00:12.67    \nframe=   45 fps=3.4 q=60.0 size=       1KiB time=00:00:01.50 bitrate=   3.4kbits/s speed=0.113x elapsed=0:00:13.28    \nframe=   47 fps=3.4 q=60.0 size=       1KiB time=00:00:01.56 bitrate=   3.2kbits/s speed=0.114x elapsed=0:00:13.79    \nframe=   48 fps=3.3 q=60.0 size=       1KiB time=00:00:01.60 bitrate=   3.2kbits/s speed=0.111x elapsed=0:00:14.39    \nframe=   50 fps=3.4 q=60.0 size=       1KiB time=00:00:01.66 bitrate=   3.0kbits/s speed=0.112x elapsed=0:00:14.91    \nframe=   52 fps=3.4 q=59.0 size=       1KiB time=00:00:01.73 bitrate=   2.9kbits/s speed=0.112x elapsed=0:00:15.45    \nframe=   54 fps=3.4 q=59.0 size=       1KiB time=00:00:01.80 bitrate=   2.8kbits/s speed=0.112x elapsed=0:00:16.02    \nframe=   55 fps=3.3 q=59.0 size=       1KiB time=00:00:01.83 bitrate=   2.8kbits/s speed=0.11x elapsed=0:00:16.59    \nframe=   57 fps=3.3 q=59.0 size=       1KiB time=00:00:01.90 bitrate=   2.7kbits/s speed=0.11x elapsed=0:00:17.22    \nframe=   58 fps=3.3 q=59.0 size=       1KiB time=00:00:01.93 bitrate=   2.6kbits/s speed=0.108x elapsed=0:00:17.84    \nframe=   60 fps=3.3 q=59.0 size=       1KiB time=00:00:02.00 bitrate=   2.5kbits/s speed=0.108x elapsed=0:00:18.44    \nframe=   62 fps=3.3 q=59.0 size=       1KiB time=00:00:02.06 bitrate=   2.5kbits/s speed=0.108x elapsed=0:00:19.05    \nframe=   64 fps=3.3 q=59.0 size=       1KiB time=00:00:02.13 bitrate=   2.4kbits/s speed=0.108x elapsed=0:00:19.67    \nframe=   66 fps=3.3 q=59.0 size=       1KiB time=00:00:02.16 bitrate=   2.3kbits/s speed=0.107x elapsed=0:00:20.26    \nframe=   67 fps=3.2 q=59.0 size=       1KiB time=00:00:02.23 bitrate=   2.3kbits/s speed=0.107x elapsed=0:00:20.81    \nframe=   69 fps=3.2 q=59.0 size=       1KiB time=00:00:02.30 bitrate=   2.2kbits/s speed=0.108x elapsed=0:00:21.37    \nframe=   71 fps=3.2 q=41.0 size=       1KiB time=00:00:02.36 bitrate=   2.1kbits/s speed=0.108x elapsed=0:00:21.94    \nframe=   73 fps=3.2 q=57.0 size=       1KiB time=00:00:02.43 bitrate=   2.1kbits/s speed=0.108x elapsed=0:00:22.53    \nframe=   74 fps=3.2 q=57.0 size=       1KiB time=00:00:02.46 bitrate=   2.1kbits/s speed=0.107x elapsed=0:00:23.05    \nframe=   76 fps=3.2 q=57.0 size=       1KiB time=00:00:02.53 bitrate=   2.0kbits/s speed=0.107x elapsed=0:00:23.61    \nframe=   78 fps=3.2 q=57.0 size=       1KiB time=00:00:02.60 bitrate=   2.0kbits/s speed=0.107x elapsed=0:00:24.21    \nframe=   80 fps=3.2 q=57.0 size=       1KiB time=00:00:02.66 bitrate=   1.9kbits/s speed=0.108x elapsed=0:00:24.74    \nframe=   82 fps=3.2 q=57.0 size=       1KiB time=00:00:02.73 bitrate=   1.9kbits/s speed=0.108x elapsed=0:00:25.30    \nframe=   84 fps=3.2 q=57.0 size=       1KiB time=00:00:02.80 bitrate=   1.8kbits/s speed=0.108x elapsed=0:00:25.89    \nframe=   85 fps=3.2 q=57.0 size=       1KiB time=00:00:02.83 bitrate=   1.8kbits/s speed=0.107x elapsed=0:00:26.48    \nframe=   87 fps=3.2 q=57.0 size=       1KiB time=00:00:02.90 bitrate=   1.7kbits/s speed=0.107x elapsed=0:00:27.04    \nframe=   89 fps=3.2 q=57.0 size=       1KiB time=00:00:02.96 bitrate=   1.7kbits/s speed=0.107x elapsed=0:00:27.66    \nframe=   90 fps=3.2 q=57.0 size=       1KiB time=00:00:03.00 bitrate=   1.7kbits/s speed=0.106x elapsed=0:00:28.21    \nframe=   92 fps=3.2 q=58.0 size=       1KiB time=00:00:03.06 bitrate=   1.7kbits/s speed=0.107x elapsed=0:00:28.75    \nframe=   94 fps=3.2 q=58.0 size=       1KiB time=00:00:03.13 bitrate=   1.6kbits/s speed=0.107x elapsed=0:00:29.27    \nframe=   96 fps=3.2 q=58.0 size=       1KiB time=00:00:03.20 bitrate=   1.6kbits/s speed=0.107x elapsed=0:00:29.83    \nframe=   98 fps=3.2 q=58.0 size=       1KiB time=00:00:03.26 bitrate=   1.6kbits/s speed=0.107x elapsed=0:00:30.42    \nframe=  100 fps=3.2 q=58.0 size=       1KiB time=00:00:03.33 bitrate=   1.5kbits/s speed=0.107x elapsed=0:00:31.05    \nframe=  102 fps=3.2 q=59.0 size=       1KiB time=00:00:03.40 bitrate=   1.5kbits/s speed=0.107x elapsed=0:00:31.74    \nframe=  104 fps=3.2 q=58.0 size=       1KiB time=00:00:03.46 bitrate=   1.5kbits/s speed=0.107x elapsed=0:00:32.35    \nframe=  106 fps=3.2 q=58.0 size=       1KiB time=00:00:03.50 bitrate=   1.4kbits/s speed=0.106x elapsed=0:00:32.87    \nframe=  108 fps=3.2 q=58.0 size=       1KiB time=00:00:03.60 bitrate=   1.4kbits/s speed=0.107x elapsed=0:00:33.49    \nframe=  110 fps=3.2 q=58.0 size=       1KiB time=00:00:03.66 bitrate=   1.4kbits/s speed=0.108x elapsed=0:00:34.08    \nframe=  112 fps=3.2 q=58.0 size=       1KiB time=00:00:03.73 bitrate=   1.4kbits/s speed=0.108x elapsed=0:00:34.64    \nframe=  114 fps=3.2 q=58.0 size=       1KiB time=00:00:03.80 bitrate=   1.3kbits/s speed=0.108x elapsed=0:00:35.16    \nframe=  116 fps=3.2 q=58.0 size=       1KiB time=00:00:03.86 bitrate=   1.3kbits/s speed=0.108x elapsed=0:00:35.75    \nframe=  118 fps=3.2 q=58.0 size=       1KiB time=00:00:03.93 bitrate=   1.3kbits/s speed=0.108x elapsed=0:00:36.38    \nframe=  120 fps=3.2 q=58.0 size=       1KiB time=00:00:04.00 bitrate=   1.3kbits/s speed=0.108x elapsed=0:00:36.94    \nframe=  122 fps=3.3 q=60.0 size=       1KiB time=00:00:04.06 bitrate=   1.2kbits/s speed=0.108x elapsed=0:00:37.48    \nframe=  124 fps=3.3 q=59.0 size=       1KiB time=00:00:04.13 bitrate=   1.2kbits/s speed=0.109x elapsed=0:00:38.03    \nframe=  125 fps=3.2 q=59.0 size=       1KiB time=00:00:04.16 bitrate=   1.2kbits/s speed=0.108x elapsed=0:00:38.54    \nframe=  126 fps=3.2 q=59.0 size=       1KiB time=00:00:04.20 bitrate=   1.2kbits/s speed=0.107x elapsed=0:00:39.09    \nframe=  126 fps=3.2 q=59.0 size=       1KiB time=00:00:04.20 bitrate=   1.2kbits/s speed=0.106x elapsed=0:00:39.62    \nframe=  126 fps=3.1 q=59.0 size=       1KiB time=00:00:04.20 bitrate=   1.2kbits/s speed=0.104x elapsed=0:00:40.23    \nframe=  126 fps=3.1 q=59.0 size=       1KiB time=00:00:04.20 bitrate=   1.2kbits/s speed=0.103x elapsed=0:00:40.82    \nframe=  126 fps=3.0 q=59.0 size=       1KiB time=00:00:04.20 bitrate=   1.2kbits/s speed=0.101x elapsed=0:00:41.40    \nframe=  126 fps=3.0 q=59.0 size=       1KiB time=00:00:04.20 bitrate=   1.2kbits/s speed= 0.1x elapsed=0:00:41.96    \nframe=  126 fps=3.0 q=59.0 size=       1KiB time=00:00:04.20 bitrate=   1.2kbits/s speed=0.0988x elapsed=0:00:42.51    \nframe=  126 fps=2.9 q=59.0 size=       1KiB time=00:00:04.20 bitrate=   1.2kbits/s speed=0.0975x elapsed=0:00:43.06    \nframe=  126 fps=2.9 q=59.0 size=       1KiB time=00:00:04.20 bitrate=   1.2kbits/s speed=0.0964x elapsed=0:00:43.58    \nframe=  126 fps=2.8 q=59.0 size=       1KiB time=00:00:04.20 bitrate=   1.2kbits/s speed=0.0949x elapsed=0:00:44.26    \nframe=  126 fps=2.8 q=59.0 size=       1KiB time=00:00:04.20 bitrate=   1.2kbits/s speed=0.0935x elapsed=0:00:44.90    \n[out#0/webm @ 00000175a8479700] video:4743KiB audio:0KiB subtitle:0KiB other streams:0KiB global headers:0KiB muxing overhead: 0.038938%\nframe=  150 fps=3.3 q=57.0 Lsize=    4745KiB time=00:00:05.00 bitrate=7773.4kbits/s speed=0.11x elapsed=0:00:45.29    \n",
  "seconds": 45.672685623168945,
  "probe_out": {}
}